<svg width="232" height="298" xmlns="http://www.w3.org/2000/svg" xmlns:undefined="http://www.inkscape.org/namespaces/inkscape" xmlns:xlink="http://www.w3.org/1999/xlink">
 <defs>
  <filter height="1.21273" y="-0.10636" width="1.04442" x="-0.02221" id="imagebot_14" color-interpolation-filters="sRGB">
   <feGaussianBlur id="imagebot_32" stdDeviation="1.6841" />
  </filter>
  <linearGradient y2="-0.01257" x2="0.5" y1="2.02294" x1="0.5" id="imagebot_19" xlink:href="#imagebot_29"/>
  <linearGradient id="imagebot_29">
   <stop stop-color="#2e3436" id="imagebot_31" offset="0"/>
   <stop stop-color="#d8571d" id="imagebot_30" offset="1"/>
  </linearGradient>
 </defs>
 <g id="imagebot_2" label="Layer 1">
  <path label="Layer 1" fill="#003f7f" id="imagebot_25" d="M 216.286 113.235 C 216.286 120.47 215.66 227.802 214.465 234.66 C 205.329 287.08 162.895 226.47 111.929 226.47 C 61.7456 226.47 19.8357 288.29 9.83721 237.07 C 8.3525 229.464 7.57143 121.321 7.57143 113.235 C 7.57143 50.697 54.2937 0 111.929 0 C 169.563 0 216.286 50.697 216.286 113.235 Z"/>
  <path label="Layer 1" fill="#3f7f00" id="imagebot_23" d="M 358.571 237.005 C 358.571 260.083 339.863 278.791 316.786 278.791 C 293.708 278.791 275 260.083 275 237.005 C 275 213.927 293.708 195.219 316.786 195.219 C 339.863 195.219 358.571 213.927 358.571 237.005 Z" transform="translate(-5.15223 0.0000305176) matrix(1.35468 0 0 1.35468 -307.227 -247.03)"/>
  <path label="Layer 1" fill="#ffffff" transform="translate(-5.15223 0.0000305176) matrix(0.931624 0 0 0.931624 -175.33 -150.3)" d="M 358.571 237.005 C 358.571 260.083 339.863 278.791 316.786 278.791 C 293.708 278.791 275 260.083 275 237.005 C 275 213.927 293.708 195.219 316.786 195.219 C 339.863 195.219 358.571 213.927 358.571 237.005 Z" id="imagebot_22"/>
  <path label="Layer 1" fill="#2e3436" id="imagebot_21" d="M 358.571 237.005 C 358.571 260.083 339.863 278.791 316.786 278.791 C 293.708 278.791 275 260.083 275 237.005 C 275 213.927 293.708 195.219 316.786 195.219 C 339.863 195.219 358.571 213.927 358.571 237.005 Z" transform="translate(-5.15223 0.0000305176) matrix(0.44088 0 0 0.44088 -19.8693 -33.9907)"/>
  <path label="Layer 1" fill="#ffffff" transform="translate(-5.15223 0.0000305176) matrix(0.13628 0 0 0.13628 84.4017 32.5441)" d="M 358.571 237.005 C 358.571 260.083 339.863 278.791 316.786 278.791 C 293.708 278.791 275 260.083 275 237.005 C 275 213.927 293.708 195.219 316.786 195.219 C 339.863 195.219 358.571 213.927 358.571 237.005 Z" id="imagebot_20"/>
  <path transform="translate(-5.15223 0.0000305176) matrix(1 0 0 1 -478.848 -441.127)" label="Layer 1" fill="url(#imagebot_19)" id="imagebot_18" d="M 672 601.566 L 672 611.545 C 672 614.875 657.728 617.556 640 617.556 L 551 617.556 C 533.272 617.556 519 614.875 519 611.545 L 519 601.566 C 548.769 600.46 647.383 572.747 672 601.566 Z"/>
  <path transform="translate(-5.15223 0.0000305176) matrix(1 0 0 1 -478.848 -441.127)" label="Layer 1" fill="#ffffff" id="imagebot_17" d="M 556.469 596.318 C 548.833 597.588 541.762 598.756 535.531 599.693 C 535.514 599.92 535.5 600.148 535.5 600.381 L 535.5 620.725 C 535.5 624.78 538.17 628.068 541.5 628.068 L 551.5 628.068 C 554.83 628.068 557.5 624.78 557.5 620.725 L 557.5 600.381 C 557.5 598.871 557.107 597.482 556.469 596.318 L 556.469 596.318 Z"/>
  <path transform="translate(-5.15223 0.0000305176) matrix(1 0 0 1 -478.848 -441.127)" label="Layer 1" fill="#2e3436" id="imagebot_16" d="M 592.25 604.881 C 577.476 604.881 565.261 610.393 563.281 617.568 L 621.219 617.568 C 619.239 610.393 607.024 604.881 592.25 604.881 Z"/>
  <path transform="translate(-5.15223 0.0000305176) matrix(1 0 0 1 -478.848 -441.127)" label="Layer 1" fill="#ffffff" id="imagebot_15" d="M 626.188 588.506 C 624.276 588.513 622.335 588.536 620.375 588.6 C 620.351 588.867 620.344 589.137 620.344 589.412 L 620.344 609.787 C 620.344 613.842 623.045 617.1 626.375 617.1 L 636.344 617.1 C 639.674 617.1 642.344 613.842 642.344 609.787 L 642.344 589.412 C 642.344 589.38 642.344 589.35 642.344 589.318 C 637.277 588.744 631.847 588.484 626.188 588.506 L 626.188 588.506 Z"/>
  <path label="Layer 1" fill="#d3d7cf" filter="url(#imagebot_14)" transform="translate(-5.15223 0.0000305176) matrix(1.27473 0 0 1 374.823 -503.934)" d="M -108 783.362 C -108 793.856 -148.742 802.362 -199 802.362 C -249.258 802.362 -290 793.856 -290 783.362 C -290 772.869 -249.258 764.362 -199 764.362 C -148.742 764.362 -108 772.869 -108 783.362 Z" id="imagebot_13"/>
  <path label="Layer 1" transform="matrix(1 0 0 1 -478.848 -441.127)" fill="#007f3f" d="M 527.638 473.483 A 6.01041 6.01041 0 1 1 515.617 473.483 A 6.01041 6.01041 0 1 1 527.638 473.483 Z" id="imagebot_12"/>
  <path label="Layer 1" transform="matrix(1 0 0 1 -478.848 -441.127)" fill="#007f3f" id="imagebot_11" d="M 518.446 489.392 A 6.01041 6.01041 0 1 1 506.425 489.392 A 6.01041 6.01041 0 1 1 518.446 489.392 Z"/>
  <path transform="translate(-5.15223 0.0000305176) matrix(1 0 0 1 -478.848 -441.127)" label="Layer 1" fill="#3f007f" id="imagebot_10" d="M 528.802 479.976 C 528.949 480.498 529.052 481.033 529.052 481.601 C 529.052 484.921 526.371 487.632 523.052 487.632 C 521.52 487.632 520.113 487.045 519.052 486.101 C 519.773 488.612 522.059 490.445 524.802 490.445 C 528.121 490.445 530.833 487.764 530.833 484.445 C 530.833 482.661 530.036 481.077 528.802 479.976 Z"/>
  <path transform="translate(-5.15223 0.0000305176) matrix(1 0 0 1 -478.848 -441.127)" label="Layer 1" fill="#007f3f" d="M 518.459 495.886 C 518.562 496.249 518.633 496.621 518.633 497.017 C 518.633 499.328 516.767 501.215 514.457 501.215 C 513.39 501.215 512.411 500.806 511.672 500.149 C 512.174 501.897 513.766 503.173 515.675 503.173 C 517.985 503.173 519.873 501.307 519.873 498.997 C 519.873 497.755 519.318 496.652 518.459 495.886 Z" id="imagebot_9"/>
  <path label="Layer 1" fill="#007f3f" id="imagebot_8" d="M 46.669 27.0523 A 6.01041 6.01041 0 1 1 34.6482 27.0523 A 6.01041 6.01041 0 1 1 46.669 27.0523 Z" transform="matrix(-1 0 0 1 227.701 -1.41422)"/>
  <path label="Layer 1" fill="#007f3f" transform="matrix(-1 0 0 1 236.894 14.4957)" d="M 46.669 27.0523 A 6.01041 6.01041 0 1 1 34.6482 27.0523 A 6.01041 6.01041 0 1 1 46.669 27.0523 Z" id="imagebot_7"/>
  <path transform="translate(-5.15223 0.0000305176) matrix(1 0 0 1 -478.848 -441.127)" label="Layer 1" fill="#007f3f" d="M 658.607 475.734 C 658.441 476.255 658.327 476.79 658.327 477.359 C 658.327 480.678 661.329 483.39 665.047 483.39 C 666.763 483.39 668.338 482.802 669.527 481.859 C 668.719 484.37 666.159 486.202 663.087 486.202 C 659.369 486.202 656.332 483.522 656.332 480.202 C 656.332 478.418 657.224 476.834 658.607 475.734 Z" id="imagebot_6"/>
  <path transform="translate(-5.15223 0.0000305176) matrix(1 0 0 1 -478.848 -441.127)" label="Layer 1" fill="#007f3f" id="imagebot_5" d="M 671.534 486.694 C 671.431 487.057 671.36 487.429 671.36 487.825 C 671.36 490.135 673.226 492.023 675.536 492.023 C 676.603 492.023 677.582 491.614 678.32 490.957 C 677.819 492.705 676.227 493.98 674.318 493.98 C 672.008 493.98 670.12 492.115 670.12 489.804 C 670.12 488.562 670.675 487.46 671.534 486.694 Z"/>
  <path label="Layer 1" fill="#007f3f" transform="matrix(-1 0 0 1 246.086 28.6378)" d="M 46.669 27.0523 A 6.01041 6.01041 0 1 1 34.6482 27.0523 A 6.01041 6.01041 0 1 1 46.669 27.0523 Z" id="imagebot_4"/>
  <path transform="translate(-5.15223 0.0000305176) matrix(1 0 0 1 -478.848 -441.127)" label="Layer 1" fill="#007f3f" id="imagebot_3" d="M 676.748 503.664 C 676.6 504.186 676.498 504.721 676.498 505.289 C 676.498 508.609 679.178 511.321 682.498 511.321 C 684.03 511.321 685.436 510.733 686.498 509.789 C 685.777 512.3 683.49 514.133 680.748 514.133 C 677.428 514.133 674.716 511.452 674.716 508.133 C 674.716 506.349 675.513 504.765 676.748 503.664 Z"/>
  <title>Layer 1</title>
 </g>
 <metadata>image/svg+xmlOpen Clip Art Librarymonster - pac2010-05-02T20:52:17Little comic monster in clean style.http://openclipart.org/detail/58483/monster---pac-by-rg1024rg1024clip artclipartcomicmonster</metadata>
</svg>